<?xml version="1.0" encoding="utf-8"?>
<!-- Generator: Adobe Illustrator 21.0.2, SVG Export Plug-In . SVG Version: 6.00 Build 0)  -->
<svg version="1.1" id="レイヤー_1" xmlns="http://www.w3.org/2000/svg" xmlns:xlink="http://www.w3.org/1999/xlink" x="0px"
	 y="0px" viewBox="0 0 328.5 83.4" style="enable-background:new 0 0 328.5 83.4;" xml:space="preserve">
<style type="text/css">
	.st0{fill:#FFFFFF;}
</style>
<g>
	<path class="st0" d="M24,18.1v34.1c1.4,1.5,3,2.9,4.7,4V14C27,15.1,25.4,16.5,24,18.1z"/>
	<path class="st0" d="M22.2,49.9V20.3c-3,4.2-4.7,9.4-4.7,14.8C17.5,40.6,19.3,45.7,22.2,49.9z"/>
	<path class="st0" d="M66.9,0H16.5C7.4,0,0,7.4,0,16.5v50.4C0,76,7.4,83.4,16.5,83.4h50.4c9.1,0,16.5-7.4,16.5-16.5V16.5
		C83.4,7.4,76,0,66.9,0z M41.7,62c-4,0-7.8-0.9-11.1-2.6v17.9h-1.8V58.4c-1.7-1-3.3-2.2-4.7-3.6v22.4h-1.8V52.9
		c-4-4.7-6.5-10.9-6.5-17.7c0-6.6,2.4-12.9,6.5-17.8v-11H24v9c1.4-1.4,3-2.6,4.7-3.6V6.4h1.8v4.5c3.5-1.7,7.3-2.6,11.1-2.6
		c14.3,0,26,12.1,26,26.9S56,62,41.7,62z"/>
	<path class="st0" d="M41.7,10.1c-3.9,0-7.7,1-11.1,2.8v44.4c3.3,1.8,7.1,2.8,11.1,2.8c13.3,0,24.2-11.2,24.2-25
		C65.9,21.3,55,10.1,41.7,10.1z"/>
</g>
<path class="st0" d="M204.9,59.4c-8.6,0-10.3-2.2-10.3-8.4V28.9h-7.2v-2.7h7.2v-7.8h2.8v7.8h9.1v2.7h-9.1v21.5c0,4.4,0,6.5,7,6.5"/>
<path class="st0" d="M248.6,43.4c-0.1,9.9,2.8,13.4,11.5,13.4c2.7,0,10,0,10.3-7.8h2.9c-0.8,9.6-8.6,10.4-13.2,10.4
	c-10.3,0-14.3-4.6-14.3-16.5c0-10.5,2.6-17.2,14.1-17.2c13.4,0,13.4,9.4,13.4,17.7H248.6z M270.4,40.8c0.1-11.2-5.2-12.4-10.4-12.4
	c-9.4,0-10.9,5-11.4,12.4H270.4z"/>
<path class="st0" d="M324.9,35.2c-0.1-3-0.2-6.8-9.8-6.8c-8.4,0-9.8,3.3-9.8,7c0,4.1,2.1,4.6,6.1,5.2l9.5,1.4
	c4.6,0.7,7.7,2.2,7.7,8.2c0,9-9.1,9.3-13.4,9.3c-13,0-13.1-6.9-13.2-10.7h2.9c0.1,4,0.1,8.1,10.5,8.1c6.2,0,10.3-1.6,10.3-6.8
	c0-4.5-2.2-5.1-6.5-5.7l-8.6-1.2c-3.7-0.5-8.2-1.4-8.2-7.8c0-4.5,1.6-9.5,12.8-9.5c12.5,0,12.5,6.8,12.5,9.5H324.9z"/>
<path class="st0" d="M113,25.7c-7.5,0-9.2,3.1-10.6,5.3v-4.8h-0.2h-2.7v40.3h2.9V54c1.1,2.2,2.6,5.4,10.8,5.4
	c11.6,0,12.4-9,12.4-17.8C125.6,31.4,123,25.7,113,25.7 M112.9,56.8c-6.8,0-10.1-2.4-10.5-11.5v-4.8c0.4-8.5,2.8-12.1,10.6-12.1
	c7.1,0,9.8,3.4,9.8,13.9C122.8,51.3,121.4,56.8,112.9,56.8"/>
<path class="st0" d="M146.3,25.7c-7.2,0-12.8,2.1-12.9,9.9h3c0.1-6.2,4.6-7.3,9.7-7.3c6.7,0,9.7,1.1,9.7,6.6c0,4.7-1.5,4.8-4,4.9
	l-9.9,0.6c-7.9,0.4-9.7,5.3-9.7,9.9c0,8.5,7.1,9.2,12.2,9.2c8.6,0,10.4-2.9,11.3-4.7V59h2.8v-6V37v-0.9
	C158.4,30.4,157.9,25.7,146.3,25.7 M144.4,56.9c-6.2,0-9.4-1.4-9.4-6.3c0-3.8,1.3-7.3,7.7-7.7l10-0.6c0.5-0.1,2.2-0.1,3.1-1.2v5.7
	C155.7,52.1,154.1,56.9,144.4,56.9"/>
<path class="st0" d="M180.1,25.7h-0.8v0c-3.9,0.1-6.5,1.3-8.9,4.7v-4.3h-0.1h-2.7V59h2.8V41.7c0-4.5,1.3-13.3,8.9-13.3h3.4v-2.7
	C181.8,25.7,180.9,25.7,180.1,25.7"/>
<path class="st0" d="M295.1,25.7h-0.8v0c-3.9,0.1-6.5,1.3-8.9,4.7v-4.3h-0.1h-2.7V59h2.8V41.7c0-4.5,1.3-13.3,8.9-13.3h3.4v-2.7
	C296.8,25.7,296,25.7,295.1,25.7"/>
<rect x="204.4" y="56.8" class="st0" width="2.1" height="2.6"/>
<path class="st0" d="M229.1,25.8L229.1,25.8c-5.9-0.1-9.2,0-12.2,4.2v-3.8h-0.2h-0.1H214V59h2.8h0.1V40.1c0.3-3.8,1.5-9.1,5.5-11
	c0.9-0.3,1.9-0.6,3.1-0.7c0.1,0,0.2,0,0.2,0l0,0c0.6-0.1,1.3-0.1,2-0.1c7.2,0,8.7,3.1,8.7,9V59h2.8V36.7
	C239.3,32.7,239.3,26.2,229.1,25.8"/>
</svg>
