<?xml version="1.0" encoding="utf-8"?>
<!-- Generator: Adobe Illustrator 21.0.2, SVG Export Plug-In . SVG Version: 6.00 Build 0)  -->
<svg version="1.1" id="レイヤー_1" xmlns="http://www.w3.org/2000/svg" xmlns:xlink="http://www.w3.org/1999/xlink" x="0px"
	 y="0px" viewBox="0 0 566.9 148.7" style="enable-background:new 0 0 566.9 148.7;" xml:space="preserve">
<style type="text/css">
	.st0{fill:#FFFFFF;}
	.st1{fill:#FDFDFD;}
	.st2{fill:#FCFDFD;}
	.st3{fill:#FCFCFC;}
	.st4{fill:#FBFBFC;}
	.st5{fill:#FAFBFB;}
	.st6{fill:#F9FAFA;}
	.st7{fill:#F9F9FA;}
	.st8{fill:#F7F8F9;}
	.st9{fill:#F7F8F8;}
	.st10{fill:#F6F7F8;}
	.st11{fill:#F5F6F7;}
	.st12{fill:#F4F5F6;}
	.st13{fill:#F3F5F6;}
	.st14{fill:#F2F4F5;}
	.st15{fill:#F1F3F4;}
	.st16{fill:#F0F2F4;}
	.st17{fill:#EFF1F3;}
	.st18{fill:#EEF1F2;}
	.st19{fill:#EEF0F2;}
	.st20{fill:#ECEFF1;}
	.st21{fill:#ECEEF0;}
	.st22{fill:#EBEEEF;}
	.st23{fill:#E9EDEF;}
	.st24{fill:#E9ECEE;}
	.st25{fill:#E8EBED;}
	.st26{fill:#E7EAED;}
	.st27{fill:#E6EAEC;}
	.st28{fill:#E5E9EB;}
	.st29{fill:#E4E8EB;}
	.st30{fill:#E3E7EA;}
	.st31{fill:#E2E7E9;}
	.st32{fill:#E1E6E8;}
	.st33{fill:#E0E5E8;}
	.st34{fill:#DFE4E7;}
	.st35{fill:#DEE3E6;}
	.st36{fill:#DDE2E5;}
	.st37{fill:#DBE1E4;}
	.st38{fill:#DAE0E3;}
	.st39{fill:#DADFE3;}
	.st40{fill:#D8DEE2;}
	.st41{fill:#D8DEE1;}
	.st42{fill:#D7DDE0;}
	.st43{fill:#D5DCE0;}
	.st44{fill:#D5DBDF;}
	.st45{fill:#D4DADE;}
	.st46{fill:#D3D9DD;}
	.st47{fill:#D2D9DD;}
	.st48{fill:#D1D8DC;}
	.st49{fill:#D0D7DB;}
	.st50{fill:#CFD6DA;}
	.st51{fill:#CED6DA;}
	.st52{fill:#CDD5D9;}
	.st53{fill:#CCD4D8;}
	.st54{fill:#CCD3D7;}
	.st55{fill:#CAD2D7;}
	.st56{fill:#C9D1D6;}
	.st57{fill:#C9D1D5;}
	.st58{fill:#C7D0D4;}
	.st59{fill:#C7CFD4;}
	.st60{fill:#C6CED3;}
	.st61{fill:#C4CDD2;}
	.st62{fill:#C4CCD1;}
	.st63{fill:#C3CCD1;}
	.st64{fill:#C2CBD0;}
	.st65{fill:#C1CACF;}
	.st66{fill:#C0C9CE;}
	.st67{fill:#BFC8CD;}
	.st68{fill:#BEC7CD;}
	.st69{fill:#BDC7CC;}
	.st70{fill:#BCC6CB;}
	.st71{fill:#BBC5CA;}
	.st72{fill:#BBC4CA;}
	.st73{fill:#B9C3C9;}
	.st74{fill:#B8C2C8;}
	.st75{fill:url(#SVGID_1_);}
	.st76{fill:#51656F;}
</style>
<g>
	<g>
		<g>
			<path class="st0" d="M20.8,148.7c-11,0-20.8-3.5-20.8-11.2C0,134.8,4.5,115,20.2,96c7.3-8.8,17.7-18.5,31.8-25.9
				c14.2-7.5,32.1-12.7,54.6-12.7c6.7,0,12.3,0.5,19.4,1.4c2.1,0.3,3.5,2.4,3.3,5.1c-0.2,3.5-3,7-8.7,7c-22.6,0-39.7,5.1-52.3,16
				c-6.3,5.4-11.4,12.3-15.5,20.7c-4.1,8.4-7.1,18.3-9.2,29.8C42.3,145.8,27.2,148.7,20.8,148.7z"/>
			<path class="st0" d="M52.2,70.1c14.1-7.4,32.1-12.6,54.5-12.6c6.7,0,12.2,0.5,19.4,1.4c2.1,0.3,3.4,2.4,3.2,5.1
				c-0.1,1.4-0.6,2.8-1.5,3.9c-1.4,1.7-3.8,3-7.2,3C98,70.9,80.9,76,68.4,86.9C62.1,92.4,57,99.3,53,107.7
				c-4.1,8.4-7.1,18.3-9.2,29.8c-0.2,1-0.6,2-1.1,2.8c-3.9,6.1-16.1,8.3-21.8,8.3c-11,0-20.8-3.5-20.8-11.2C0,134.8,4.6,115,20.3,96
				C27.7,87.2,38.1,77.5,52.2,70.1z"/>
			<path class="st0" d="M52.4,70c14.1-7.4,32-12.6,54.4-12.6c6.7,0,12.2,0.5,19.3,1.4c2.1,0.3,3.4,2.4,3.2,5.1
				c-0.1,1.4-0.6,2.7-1.6,3.9c-1.4,1.7-3.8,3-7.2,3C98,70.9,80.9,76,68.4,86.9c-6.3,5.4-11.4,12.3-15.4,20.7
				c-4.1,8.4-7.1,18.3-9.2,29.8c-0.2,1-0.6,2-1.1,2.8c-3.9,6.1-16,8.4-21.8,8.4c-11,0-20.8-3.5-20.8-11.2C0,134.8,4.6,115,20.4,96
				C27.8,87.1,38.2,77.5,52.4,70z"/>
			<path class="st1" d="M52.6,70c14.1-7.4,32-12.5,54.3-12.5c6.7,0,12.2,0.5,19.3,1.4c2.1,0.3,3.4,2.4,3.1,5.1
				c-0.1,1.4-0.6,2.7-1.6,3.8c-1.4,1.7-3.8,2.9-7.2,2.9c-22.5,0-39.6,5.2-52.1,16.1c-6.3,5.5-11.4,12.3-15.4,20.7
				c-4.1,8.4-7.1,18.3-9.2,29.8c-0.2,1-0.6,2-1.1,2.8c-3.8,6.1-15.9,8.4-21.7,8.4c-11,0-20.8-3.5-20.8-11.2
				c0-2.6,4.6-22.5,20.4-41.5C27.9,87.1,38.3,77.4,52.6,70z"/>
			<path class="st2" d="M52.7,70c14.1-7.3,31.9-12.5,54.2-12.4c6.6,0,12.2,0.5,19.2,1.4c2.1,0.3,3.3,2.5,3.1,5.1
				c-0.1,1.3-0.7,2.7-1.6,3.8c-1.5,1.7-3.8,2.9-7.2,2.9C97.9,70.8,80.8,76,68.3,86.9c-6.3,5.5-11.4,12.3-15.4,20.7
				c-4.1,8.4-7.1,18.3-9.2,29.8c-0.2,1-0.6,2-1.1,2.8c-3.8,6.2-15.9,8.4-21.7,8.4c-10.9,0-20.8-3.5-20.8-11.2
				c0-2.6,4.6-22.5,20.5-41.5C28,87,38.4,77.4,52.7,70z"/>
			<path class="st3" d="M52.9,69.9c14.1-7.3,31.9-12.4,54-12.4c6.6,0,12.2,0.5,19.2,1.4c2,0.3,3.3,2.5,3,5.1
				c-0.2,1.3-0.7,2.7-1.7,3.8c-1.5,1.7-3.8,2.8-7.2,2.9c-22.5,0.1-39.5,5.3-52,16.2c-6.3,5.5-11.4,12.3-15.4,20.7
				c-4.1,8.4-7.1,18.3-9.2,29.7c-0.2,1-0.6,2-1.1,2.8c-3.8,6.2-15.8,8.4-21.6,8.5c-10.9,0-20.8-3.5-20.8-11.2
				c0-2.6,4.6-22.5,20.5-41.6C28.1,87,38.6,77.3,52.9,69.9z"/>
			<path class="st4" d="M53,69.9c14.1-7.3,31.8-12.3,53.9-12.3c6.6,0,12.1,0.5,19.2,1.4c2,0.3,3.3,2.5,2.9,5.2
				c-0.2,1.3-0.7,2.6-1.7,3.7c-1.5,1.6-3.9,2.8-7.2,2.8c-22.5,0.1-39.5,5.3-52,16.2c-6.2,5.5-11.4,12.3-15.4,20.7
				c-4.1,8.4-7.1,18.3-9.2,29.7c-0.2,1-0.6,2-1.1,2.8c-3.7,6.2-15.7,8.5-21.6,8.5c-10.9,0-20.8-3.5-20.8-11.2
				c0-2.6,4.6-22.5,20.6-41.6C28.2,86.9,38.7,77.3,53,69.9z"/>
			<path class="st5" d="M53.2,69.9c14-7.2,31.8-12.3,53.8-12.2c6.6,0,12.1,0.5,19.1,1.4c2,0.3,3.3,2.5,2.9,5.2
				c-0.2,1.3-0.7,2.6-1.7,3.7c-1.5,1.6-3.9,2.8-7.2,2.8C97.7,70.8,80.6,76,68.2,86.9c-6.2,5.5-11.3,12.3-15.4,20.7
				c-4.1,8.4-7.1,18.3-9.3,29.7c-0.2,1-0.6,2-1.1,2.8c-3.7,6.2-15.6,8.5-21.6,8.5c-10.9,0-20.8-3.5-20.8-11.1
				c0-2.6,4.6-22.6,20.6-41.7C28.3,86.9,38.8,77.2,53.2,69.9z"/>
			<path class="st6" d="M53.4,69.8c14-7.2,31.7-12.2,53.7-12.1c6.6,0,12.1,0.5,19.1,1.4c2,0.3,3.2,2.5,2.8,5.2
				c-0.2,1.3-0.8,2.6-1.8,3.6c-1.5,1.6-3.9,2.7-7.2,2.7C97.6,70.8,80.6,76,68.2,86.9c-6.2,5.5-11.3,12.3-15.4,20.6
				c-4.1,8.4-7.1,18.3-9.3,29.7c-0.2,1-0.6,2-1.1,2.8c-3.7,6.2-15.5,8.5-21.5,8.5c-10.9,0-20.7-3.5-20.7-11.1
				c0-2.6,4.7-22.6,20.7-41.7C28.4,86.8,39,77.2,53.4,69.8z"/>
			<path class="st7" d="M53.5,69.8c14-7.2,31.6-12.1,53.6-12.1c6.5,0,12.1,0.5,19,1.4c2,0.3,3.2,2.5,2.8,5.2
				c-0.2,1.3-0.8,2.6-1.8,3.6c-1.5,1.6-3.9,2.7-7.2,2.7C97.5,70.7,80.6,76,68.1,86.9c-6.2,5.5-11.3,12.3-15.4,20.6
				c-4.1,8.4-7.1,18.3-9.3,29.7c-0.2,1-0.6,2-1.1,2.8c-3.6,6.2-15.5,8.5-21.5,8.6c-10.9,0-20.7-3.5-20.7-11.1
				c0-2.5,4.7-22.6,20.8-41.7C28.5,86.8,39.1,77.1,53.5,69.8z"/>
			<path class="st8" d="M53.7,69.8c14-7.1,31.6-12.1,53.5-12c6.5,0,12,0.5,19,1.4c2,0.3,3.2,2.5,2.7,5.2c-0.2,1.3-0.8,2.5-1.8,3.6
				c-1.6,1.5-3.9,2.6-7.2,2.7C97.5,70.7,80.5,76,68.1,86.9c-6.2,5.5-11.3,12.3-15.4,20.6c-4.1,8.4-7.1,18.2-9.3,29.6
				c-0.2,1-0.6,2-1.1,2.8c-3.6,6.2-15.4,8.6-21.4,8.6c-10.9,0-20.7-3.5-20.7-11.1c0-2.5,4.7-22.6,20.8-41.8
				C28.6,86.7,39.2,77.1,53.7,69.8z"/>
			<path class="st9" d="M53.8,69.7c14-7.1,31.5-12,53.4-11.9c6.5,0,12,0.5,18.9,1.4c2,0.3,3.1,2.6,2.7,5.2c-0.2,1.3-0.8,2.5-1.9,3.5
				c-1.6,1.5-4,2.6-7.2,2.6C97.4,70.7,80.5,76,68,86.9c-6.2,5.5-11.3,12.3-15.4,20.6c-4.1,8.4-7.2,18.2-9.3,29.6
				c-0.2,1-0.5,2-1.1,2.8c-3.6,6.2-15.3,8.6-21.4,8.6c-10.9,0-20.7-3.5-20.7-11.1c0-2.5,4.7-22.6,20.9-41.8
				C28.7,86.7,39.3,77,53.8,69.7z"/>
			<path class="st10" d="M54,69.7c14-7.1,31.5-11.9,53.3-11.8c6.5,0,12,0.5,18.9,1.4c1.9,0.3,3.1,2.6,2.6,5.2
				c-0.2,1.3-0.8,2.5-1.9,3.5c-1.6,1.5-4,2.6-7.3,2.6C97.3,70.7,80.4,76,68,86.8c-6.2,5.5-11.3,12.3-15.4,20.6
				c-4.1,8.4-7.2,18.2-9.3,29.6c-0.2,1-0.5,2-1,2.8c-3.5,6.2-15.2,8.6-21.4,8.7c-10.8,0-20.7-3.5-20.7-11.1
				c0-2.5,4.7-22.7,20.9-41.8C28.8,86.6,39.5,77,54,69.7z"/>
			<path class="st11" d="M54.2,69.7c14-7,31.4-11.9,53.2-11.8c6.4,0,12,0.5,18.9,1.4c1.9,0.3,3.1,2.6,2.6,5.2
				c-0.3,1.2-0.9,2.5-1.9,3.5c-1.6,1.5-4,2.5-7.3,2.6C97.3,70.7,80.4,76,68,86.8c-6.2,5.5-11.3,12.3-15.4,20.6
				c-4.1,8.4-7.2,18.2-9.3,29.6c-0.2,1-0.5,2-1,2.8c-3.5,6.2-15.1,8.6-21.3,8.7c-10.8,0-20.7-3.5-20.7-11.1c0-2.5,4.8-22.7,21-41.9
				C28.9,86.6,39.6,76.9,54.2,69.7z"/>
			<path class="st12" d="M54.3,69.6c13.9-7,31.4-11.8,53.1-11.7c6.4,0,12,0.5,18.8,1.4c1.9,0.2,3.1,2.6,2.5,5.2
				c-0.3,1.2-0.9,2.5-1.9,3.4c-1.6,1.4-4,2.5-7.3,2.5C97.2,70.6,80.3,76,67.9,86.8c-6.2,5.5-11.3,12.3-15.4,20.6
				c-4.1,8.4-7.2,18.2-9.3,29.6c-0.2,1-0.5,2-1,2.8c-3.5,6.3-15.1,8.7-21.3,8.7c-10.8,0-20.7-3.5-20.7-11.1c0-2.5,4.8-22.7,21-41.9
				C29,86.5,39.7,76.9,54.3,69.6z"/>
			<path class="st13" d="M54.5,69.6c13.9-6.9,31.3-11.7,53-11.6c6.4,0,11.9,0.5,18.8,1.4c1.9,0.2,3,2.6,2.4,5.2
				c-0.3,1.2-0.9,2.4-2,3.4c-1.6,1.4-4,2.5-7.3,2.5C97.1,70.6,80.3,76,67.9,86.8c-6.2,5.5-11.3,12.3-15.4,20.6
				c-4.1,8.4-7.2,18.2-9.3,29.6c-0.2,1-0.5,2-1,2.8c-3.4,6.3-15,8.7-21.2,8.7c-10.8,0.1-20.7-3.5-20.7-11.1
				c0-2.5,4.8-22.7,21.1-41.9C29.1,86.4,39.9,76.8,54.5,69.6z"/>
			<path class="st14" d="M54.6,69.5c13.9-6.9,31.3-11.7,52.9-11.6c6.4,0,11.9,0.5,18.7,1.4c1.9,0.2,3,2.6,2.4,5.2
				c-0.3,1.2-0.9,2.4-2,3.3c-1.7,1.4-4.1,2.4-7.3,2.4C97.1,70.6,80.2,76,67.9,86.8c-6.2,5.5-11.3,12.3-15.4,20.6
				c-4.1,8.4-7.2,18.2-9.3,29.5c-0.2,1-0.5,2-1,2.8c-3.4,6.3-14.9,8.7-21.2,8.8c-10.8,0.1-20.7-3.5-20.7-11.1
				c0-2.5,4.8-22.7,21.1-42C29.2,86.4,40,76.8,54.6,69.5z"/>
			<path class="st15" d="M54.8,69.5C68.7,62.7,86,57.9,107.5,58c6.4,0,11.9,0.5,18.7,1.4c1.9,0.2,3,2.6,2.3,5.2
				c-0.3,1.2-0.9,2.4-2,3.3c-1.7,1.4-4.1,2.4-7.3,2.4C97,70.6,80.2,76,67.8,86.8c-6.2,5.5-11.3,12.3-15.4,20.5
				c-4.1,8.4-7.2,18.2-9.3,29.5c-0.2,1-0.5,2-1,2.8c-3.4,6.3-14.8,8.7-21.2,8.8c-10.8,0.1-20.7-3.5-20.7-11c0-2.4,4.8-22.8,21.2-42
				C29.3,86.3,40.1,76.7,54.8,69.5z"/>
			<path class="st16" d="M55,69.5c13.9-6.8,31.2-11.5,52.6-11.4c6.3,0,11.9,0.5,18.7,1.4c1.9,0.2,2.9,2.7,2.3,5.2
				c-0.3,1.2-1,2.4-2.1,3.3c-1.7,1.4-4.1,2.3-7.3,2.4c-22.2,0.3-39,5.7-51.3,16.5c-6.2,5.5-11.3,12.3-15.3,20.5
				c-4.1,8.4-7.2,18.2-9.3,29.5c-0.2,1-0.5,1.9-1,2.8c-3.3,6.3-14.7,8.8-21.1,8.8c-10.8,0.1-20.7-3.5-20.7-11
				c0-2.4,4.8-22.8,21.3-42C29.4,86.3,40.3,76.7,55,69.5z"/>
			<path class="st17" d="M55.1,69.4C69,62.7,86.2,58,107.6,58.1c6.3,0,11.8,0.5,18.6,1.4c1.8,0.2,2.9,2.7,2.2,5.2
				c-0.3,1.2-1,2.3-2.1,3.2c-1.7,1.3-4.1,2.3-7.3,2.3c-22.2,0.3-39,5.7-51.3,16.5c-6.2,5.5-11.3,12.3-15.3,20.5
				c-4.1,8.4-7.2,18.2-9.3,29.5c-0.2,1-0.5,1.9-1,2.8c-3.3,6.3-14.6,8.8-21.1,8.8c-10.8,0.1-20.7-3.5-20.7-11
				c0-2.4,4.9-22.8,21.3-42.1C29.5,86.2,40.4,76.6,55.1,69.4z"/>
			<path class="st18" d="M55.3,69.4c13.8-6.7,31.1-11.4,52.4-11.3c6.3,0,11.8,0.5,18.6,1.4c1.8,0.2,2.9,2.7,2.2,5.2
				c-0.3,1.2-1,2.3-2.1,3.2c-1.7,1.3-4.1,2.3-7.3,2.3C96.8,70.5,80,76,67.7,86.8c-6.2,5.5-11.3,12.3-15.3,20.5
				c-4.1,8.4-7.2,18.2-9.3,29.5c-0.2,1-0.5,1.9-1,2.8c-3.3,6.3-14.6,8.8-21,8.9c-10.7,0.1-20.7-3.5-20.7-11
				c0-2.4,4.9-22.8,21.4-42.1C29.6,86.2,40.5,76.6,55.3,69.4z"/>
			<path class="st19" d="M55.4,69.4c13.8-6.7,31-11.3,52.3-11.2c6.3,0,11.8,0.5,18.5,1.4c1.8,0.2,2.9,2.7,2.1,5.2
				c-0.4,1.2-1,2.3-2.2,3.1c-1.7,1.3-4.2,2.2-7.3,2.3C96.8,70.5,80,76,67.7,86.8c-6.2,5.5-11.3,12.3-15.3,20.5
				c-4.1,8.4-7.2,18.2-9.3,29.4c-0.2,1-0.5,1.9-1,2.8c-3.2,6.3-14.5,8.8-21,8.9c-10.7,0.1-20.7-3.5-20.7-11
				c0-2.4,4.9-22.8,21.4-42.1C29.7,86.1,40.6,76.5,55.4,69.4z"/>
			<path class="st20" d="M55.6,69.3c13.8-6.7,31-11.3,52.2-11.1c6.3,0,11.8,0.5,18.5,1.4c1.8,0.2,2.8,2.7,2,5.2
				c-0.4,1.2-1,2.3-2.2,3.1c-1.8,1.3-4.2,2.2-7.3,2.2C96.7,70.5,79.9,76,67.6,86.8c-6.2,5.5-11.3,12.3-15.3,20.5
				c-4.1,8.4-7.2,18.2-9.3,29.4c-0.2,1-0.5,1.9-1,2.8c-3.2,6.3-14.4,8.9-21,8.9c-10.7,0.1-20.7-3.5-20.7-11
				c0-2.4,4.9-22.9,21.5-42.2C29.8,86.1,40.8,76.5,55.6,69.3z"/>
			<path class="st21" d="M55.7,69.3c13.8-6.6,30.9-11.2,52.1-11c6.2,0,11.8,0.5,18.4,1.4c1.8,0.2,2.8,2.7,2,5.2
				c-0.4,1.1-1.1,2.2-2.2,3.1c-1.8,1.2-4.2,2.1-7.3,2.2c-22.1,0.4-38.8,5.8-51.1,16.6c-6.2,5.5-11.3,12.3-15.3,20.5
				c-4.1,8.4-7.2,18.2-9.3,29.4c-0.2,1-0.5,1.9-1,2.8c-3.2,6.3-14.3,8.9-20.9,9c-10.7,0.1-20.6-3.5-20.6-11
				c0-2.4,4.9-22.9,21.5-42.2C29.9,86,40.9,76.4,55.7,69.3z"/>
			<path class="st22" d="M55.9,69.3c13.8-6.6,30.9-11.1,52-11c6.2,0,11.7,0.5,18.4,1.4c1.8,0.2,2.8,2.7,1.9,5.2
				c-0.4,1.1-1.1,2.2-2.3,3c-1.8,1.2-4.2,2.1-7.3,2.2c-22.1,0.4-38.8,5.9-51,16.7c-6.2,5.5-11.3,12.3-15.3,20.5
				c-4.1,8.4-7.2,18.1-9.3,29.4c-0.2,1-0.5,1.9-1,2.8c-3.1,6.4-14.2,8.9-20.9,9c-10.7,0.1-20.6-3.5-20.6-11c0-2.4,5-22.9,21.6-42.3
				C30,86,41,76.4,55.9,69.3z"/>
			<path class="st23" d="M56.1,69.2c13.8-6.6,30.8-11.1,51.9-10.9c6.2,0.1,11.7,0.5,18.4,1.4c1.8,0.2,2.7,2.8,1.9,5.2
				c-0.4,1.1-1.1,2.2-2.3,3c-1.8,1.2-4.2,2.1-7.3,2.1c-22,0.4-38.7,5.9-51,16.7c-6.2,5.5-11.3,12.3-15.3,20.5
				c-4.1,8.4-7.2,18.1-9.3,29.4c-0.2,1-0.5,1.9-1,2.8c-3.1,6.4-14.2,8.9-20.8,9c-10.7,0.1-20.6-3.5-20.6-11c0-2.3,5-22.9,21.7-42.3
				C30.1,85.9,41.2,76.3,56.1,69.2z"/>
			<path class="st24" d="M56.2,69.2C70,62.7,87,58.2,108,58.4c6.2,0.1,11.7,0.5,18.3,1.4c1.7,0.2,2.7,2.8,1.8,5.2
				c-0.4,1.1-1.1,2.2-2.3,3c-1.8,1.2-4.3,2-7.4,2.1c-22,0.4-38.7,5.9-50.9,16.7c-6.2,5.5-11.2,12.3-15.3,20.4
				c-4.1,8.4-7.2,18.1-9.3,29.3c-0.2,1-0.5,1.9-0.9,2.8c-3,6.4-14.1,9-20.8,9c-10.7,0.1-20.6-3.5-20.6-11c0-2.3,5-22.9,21.7-42.3
				C30.2,85.9,41.3,76.3,56.2,69.2z"/>
			<path class="st25" d="M56.4,69.2c13.7-6.5,30.7-10.9,51.7-10.8c6.2,0.1,11.7,0.5,18.3,1.4c1.7,0.2,2.7,2.8,1.8,5.2
				c-0.4,1.1-1.1,2.2-2.4,2.9c-1.8,1.1-4.3,2-7.4,2c-22,0.4-38.7,5.9-50.9,16.7c-6.2,5.5-11.2,12.3-15.3,20.4
				c-4.1,8.4-7.2,18.1-9.3,29.3c-0.2,1-0.5,1.9-0.9,2.8c-3,6.4-14,9-20.8,9.1c-10.7,0.1-20.6-3.5-20.6-10.9c0-2.3,5-23,21.8-42.4
				C30.3,85.8,41.4,76.2,56.4,69.2z"/>
			<path class="st26" d="M56.5,69.1c13.7-6.5,30.7-10.9,51.6-10.7c6.1,0.1,11.6,0.5,18.2,1.4c1.7,0.2,2.7,2.8,1.7,5.2
				c-0.4,1.1-1.2,2.1-2.4,2.9c-1.8,1.1-4.3,2-7.4,2c-22,0.4-38.6,6-50.8,16.8c-6.2,5.5-11.2,12.3-15.3,20.4
				c-4.1,8.4-7.2,18.1-9.4,29.3c-0.2,1-0.5,1.9-0.9,2.8c-3,6.4-13.9,9-20.7,9.1c-10.6,0.1-20.6-3.5-20.6-10.9c0-2.3,5-23,21.8-42.4
				C30.4,85.8,41.6,76.2,56.5,69.1z"/>
			<path class="st27" d="M56.7,69.1c13.7-6.4,30.6-10.8,51.5-10.6c6.1,0.1,11.6,0.5,18.2,1.4c1.7,0.2,2.6,2.8,1.6,5.2
				c-0.4,1.1-1.2,2.1-2.4,2.8c-1.9,1.1-4.3,1.9-7.4,2c-21.9,0.5-38.6,6-50.8,16.8c-6.2,5.5-11.2,12.3-15.3,20.4
				c-4.1,8.4-7.2,18.1-9.4,29.3c-0.2,1-0.5,1.9-0.9,2.8c-2.9,6.4-13.8,9-20.7,9.1c-10.6,0.1-20.6-3.5-20.6-10.9
				c0-2.3,5-23,21.9-42.4C30.5,85.7,41.7,76.1,56.7,69.1z"/>
			<path class="st28" d="M56.9,69.1c13.7-6.4,30.6-10.7,51.3-10.5c6.1,0.1,11.6,0.5,18.1,1.4c1.7,0.2,2.6,2.8,1.6,5.3
				c-0.5,1.1-1.2,2.1-2.4,2.8c-1.9,1.1-4.3,1.9-7.4,1.9c-21.9,0.5-38.5,6-50.7,16.8c-6.2,5.5-11.2,12.3-15.3,20.4
				c-4.1,8.3-7.2,18.1-9.4,29.3c-0.2,1-0.5,1.9-0.9,2.9c-2.9,6.4-13.8,9.1-20.6,9.1c-10.6,0.1-20.6-3.5-20.6-10.9
				c0-2.3,5.1-23,21.9-42.5C30.6,85.7,41.8,76.1,56.9,69.1z"/>
			<path class="st29" d="M57,69c13.7-6.4,30.5-10.7,51.2-10.5c6.1,0.1,11.6,0.5,18.1,1.4c1.7,0.2,2.6,2.8,1.5,5.3
				c-0.5,1.1-1.2,2.1-2.5,2.8c-1.9,1.1-4.3,1.8-7.4,1.9c-21.9,0.5-38.5,6.1-50.7,16.8c-6.2,5.5-11.2,12.2-15.3,20.4
				c-4.1,8.3-7.2,18.1-9.4,29.3c-0.2,1-0.5,1.9-0.9,2.9c-2.9,6.4-13.7,9.1-20.6,9.2c-10.6,0.1-20.6-3.5-20.6-10.9
				c0-2.3,5.1-23,22-42.5C30.7,85.6,41.9,76,57,69z"/>
			<path class="st30" d="M57.2,69c13.6-6.3,30.5-10.6,51.1-10.4c6.1,0.1,11.5,0.5,18.1,1.4c1.6,0.2,2.6,2.9,1.5,5.3
				c-0.5,1-1.2,2-2.5,2.7c-1.9,1-4.4,1.8-7.4,1.9C96,70.3,79.5,75.9,67.3,86.7C61.1,92.1,56.1,98.9,52,107
				c-4.1,8.3-7.2,18.1-9.4,29.2c-0.2,1-0.5,1.9-0.9,2.9c-2.8,6.4-13.6,9.1-20.6,9.2c-10.6,0.1-20.6-3.5-20.6-10.9
				c0-2.3,5.1-23.1,22-42.5C30.8,85.6,42.1,76,57.2,69z"/>
			<path class="st31" d="M57.3,69c13.6-6.3,30.4-10.6,51-10.3c6,0.1,11.5,0.5,18,1.4c1.6,0.2,2.5,2.9,1.4,5.3c-0.5,1-1.3,2-2.5,2.7
				c-1.9,1-4.4,1.8-7.4,1.8C96,70.3,79.4,75.9,67.2,86.7C61.1,92.1,56,98.9,52,107c-4.2,8.3-7.2,18.1-9.4,29.2
				c-0.2,1-0.5,1.9-0.9,2.9c-2.8,6.4-13.5,9.1-20.5,9.2c-10.6,0.1-20.6-3.5-20.6-10.9c0-2.2,5.1-23.1,22.1-42.6
				C30.9,85.5,42.2,75.9,57.3,69z"/>
			<path class="st32" d="M57.5,68.9c13.6-6.3,30.4-10.5,50.9-10.2c6,0.1,11.5,0.5,18,1.4c1.6,0.2,2.5,2.9,1.4,5.3
				c-0.5,1-1.3,2-2.6,2.6c-1.9,1-4.4,1.7-7.4,1.8c-21.8,0.5-38.4,6.2-50.5,16.9C61,92.1,56,98.9,52,107c-4.2,8.3-7.2,18.1-9.4,29.2
				c-0.2,1-0.5,1.9-0.9,2.9c-2.8,6.5-13.4,9.2-20.5,9.3c-10.6,0.1-20.6-3.5-20.6-10.9c0-2.2,5.1-23.1,22.2-42.6
				C31,85.5,42.3,75.9,57.5,68.9z"/>
			<path class="st33" d="M57.7,68.9c13.6-6.2,30.3-10.4,50.8-10.2c6,0.1,11.5,0.5,17.9,1.4c1.6,0.2,2.5,2.9,1.3,5.3
				c-0.5,1-1.3,2-2.6,2.6c-2,1-4.4,1.7-7.4,1.8c-21.8,0.6-38.3,6.2-50.5,16.9C61,92.1,56,98.9,51.9,107c-4.2,8.3-7.2,18.1-9.4,29.2
				c-0.2,1-0.5,1.9-0.9,2.9c-2.7,6.5-13.4,9.2-20.4,9.3c-10.6,0.1-20.6-3.5-20.6-10.9c0-2.2,5.2-23.1,22.2-42.6
				C31.1,85.4,42.5,75.8,57.7,68.9z"/>
			<path class="st34" d="M57.8,68.9c13.6-6.2,30.3-10.4,50.7-10.1c6,0.1,11.5,0.5,17.9,1.4c1.6,0.2,2.5,2.9,1.2,5.3
				c-0.5,1-1.3,2-2.6,2.6c-2,0.9-4.4,1.7-7.4,1.7c-21.8,0.6-38.3,6.2-50.4,17C61,92.1,55.9,98.9,51.9,107
				c-4.2,8.3-7.2,18.1-9.4,29.2c-0.2,1-0.5,1.9-0.9,2.9c-2.7,6.5-13.3,9.2-20.4,9.3c-10.5,0.1-20.6-3.5-20.6-10.9
				c0-2.2,5.2-23.1,22.3-42.7C31.2,85.4,42.6,75.8,57.8,68.9z"/>
			<path class="st35" d="M58,68.8c13.6-6.2,30.2-10.3,50.6-10c6,0.1,11.4,0.5,17.9,1.4c1.6,0.2,2.4,2.9,1.2,5.3
				c-0.5,1-1.3,1.9-2.7,2.5c-2,0.9-4.5,1.6-7.4,1.7c-21.8,0.6-38.3,6.2-50.4,17c-6.2,5.5-11.2,12.2-15.2,20.3
				c-4.2,8.3-7.2,18.1-9.4,29.1c-0.2,1-0.5,1.9-0.9,2.9c-2.7,6.5-13.2,9.2-20.4,9.3c-10.5,0.1-20.5-3.5-20.6-10.8
				c0-2.2,5.2-23.1,22.3-42.7C31.3,85.3,42.7,75.7,58,68.8z"/>
			<path class="st36" d="M58.1,68.8c13.5-6.1,30.2-10.2,50.5-10c5.9,0.1,11.4,0.5,17.8,1.4c1.6,0.2,2.4,3,1.1,5.3
				c-0.5,1-1.4,1.9-2.7,2.5c-2,0.9-4.5,1.6-7.4,1.6c-21.7,0.6-38.2,6.3-50.3,17c-6.2,5.5-11.2,12.2-15.2,20.3
				c-4.2,8.3-7.3,18-9.4,29.1c-0.2,1-0.5,1.9-0.9,2.9c-2.6,6.5-13.1,9.3-20.3,9.4c-10.5,0.1-20.5-3.5-20.5-10.8
				c0-2.2,5.2-23.2,22.4-42.7C31.4,85.3,42.8,75.7,58.1,68.8z"/>
			<path class="st36" d="M58.3,68.7c13.5-6.1,30.1-10.2,50.4-9.9c5.9,0.1,11.4,0.5,17.8,1.4c1.5,0.2,2.4,3,1.1,5.3
				c-0.5,1-1.4,1.9-2.7,2.5c-2,0.9-4.5,1.5-7.4,1.6c-21.7,0.6-38.2,6.3-50.3,17c-6.2,5.5-11.2,12.2-15.2,20.3
				c-4.2,8.3-7.3,18-9.4,29.1c-0.2,1-0.5,1.9-0.8,2.9c-2.6,6.5-13,9.3-20.3,9.4c-10.5,0.1-20.5-3.5-20.5-10.8
				c0-2.2,5.2-23.2,22.4-42.8C31.5,85.2,43,75.6,58.3,68.7z"/>
			<path class="st37" d="M58.5,68.7c13.5-6.1,30.1-10.1,50.3-9.8c5.9,0.1,11.4,0.5,17.7,1.4c1.5,0.2,2.4,3,1,5.3
				c-0.6,1-1.4,1.9-2.8,2.4c-2,0.8-4.5,1.5-7.5,1.6C95.5,70.2,79.1,75.9,67,86.6c-6.2,5.5-11.2,12.2-15.2,20.3
				c-4.2,8.3-7.3,18-9.4,29.1c-0.2,1-0.5,1.9-0.8,2.9c-2.6,6.5-12.9,9.3-20.2,9.4c-10.5,0.1-20.5-3.5-20.5-10.8
				c0-2.1,5.3-23.2,22.5-42.8C31.6,85.1,43.1,75.6,58.5,68.7z"/>
			<path class="st38" d="M58.6,68.7c13.5-6,30-10,50.2-9.7c5.9,0.1,11.3,0.5,17.7,1.4c1.5,0.2,2.3,3,1,5.3c-0.6,0.9-1.4,1.8-2.8,2.4
				c-2.1,0.8-4.5,1.5-7.5,1.5C95.5,70.2,79,75.9,67,86.6c-6.1,5.5-11.2,12.2-15.2,20.3c-4.2,8.3-7.3,18-9.4,29.1
				c-0.2,1-0.5,1.9-0.8,2.9c-2.5,6.5-12.9,9.3-20.2,9.5c-10.5,0.1-20.5-3.5-20.5-10.8c0-2.1,5.3-23.2,22.5-42.9
				C31.7,85.1,43.2,75.5,58.6,68.7z"/>
			<path class="st39" d="M58.8,68.6c13.5-6,29.9-10,50-9.7c5.9,0.1,11.3,0.5,17.6,1.4c1.5,0.2,2.3,3,0.9,5.3
				c-0.6,0.9-1.5,1.8-2.8,2.3c-2.1,0.8-4.6,1.4-7.5,1.5C95.4,70.1,79,75.9,66.9,86.6c-6.1,5.5-11.2,12.2-15.2,20.3
				c-4.2,8.3-7.3,18-9.4,29c-0.2,1-0.5,1.9-0.8,2.9c-2.5,6.5-12.8,9.4-20.2,9.5c-10.5,0.1-20.5-3.5-20.5-10.8
				c0-2.1,5.3-23.2,22.6-42.9C31.8,85,43.4,75.5,58.8,68.6z"/>
			<path class="st40" d="M58.9,68.6c13.5-6,29.9-9.9,49.9-9.6c5.8,0.1,11.3,0.5,17.6,1.4c1.5,0.2,2.3,3,0.8,5.3
				c-0.6,0.9-1.5,1.8-2.9,2.3c-2.1,0.8-4.6,1.4-7.5,1.5c-21.6,0.7-38,6.4-50.1,17.1c-6.1,5.5-11.2,12.2-15.2,20.2
				c-4.2,8.3-7.3,18-9.4,29c-0.2,1-0.5,1.9-0.8,2.9c-2.5,6.5-12.7,9.4-20.1,9.5c-10.5,0.2-20.5-3.5-20.5-10.8
				c0-2.1,5.3-23.3,22.7-42.9C31.9,85,43.5,75.4,58.9,68.6z"/>
			<path class="st41" d="M59.1,68.6c13.4-5.9,29.8-9.8,49.8-9.5c5.8,0.1,11.3,0.5,17.6,1.4c1.5,0.2,2.3,3,0.8,5.3
				c-0.6,0.9-1.5,1.8-2.9,2.3c-2.1,0.8-4.6,1.3-7.5,1.4c-21.6,0.7-38,6.5-50,17.2c-6.1,5.5-11.2,12.2-15.2,20.2
				c-4.2,8.3-7.3,18-9.4,29c-0.2,1-0.5,1.9-0.8,2.9c-2.4,6.5-12.6,9.4-20.1,9.5c-10.4,0.2-20.5-3.5-20.5-10.8
				c0-2.1,5.3-23.3,22.7-43C32,84.9,43.6,75.4,59.1,68.6z"/>
			<path class="st42" d="M59.2,68.5c13.4-5.9,29.8-9.8,49.7-9.4c5.8,0.1,11.3,0.5,17.5,1.3c1.5,0.2,2.2,3.1,0.7,5.3
				c-0.6,0.9-1.5,1.7-2.9,2.2c-2.1,0.7-4.6,1.3-7.5,1.4c-21.6,0.7-38,6.5-50,17.2c-6.1,5.5-11.2,12.2-15.2,20.2
				c-4.2,8.3-7.3,18-9.4,29c-0.2,1-0.5,1.9-0.8,2.9c-2.4,6.6-12.5,9.4-20.1,9.6c-10.4,0.2-20.5-3.5-20.5-10.8
				c0-2.1,5.3-23.3,22.8-43C32.1,84.9,43.7,75.3,59.2,68.5z"/>
			<path class="st43" d="M59.4,68.5c13.4-5.9,29.7-9.7,49.6-9.4c5.8,0.1,11.2,0.5,17.5,1.3c1.4,0.2,2.2,3.1,0.7,5.3
				c-0.6,0.9-1.5,1.7-3,2.2c-2.1,0.7-4.6,1.3-7.5,1.4c-21.6,0.7-37.9,6.5-49.9,17.2c-6.1,5.5-11.1,12.2-15.2,20.2
				c-4.2,8.3-7.3,18-9.4,29c-0.2,1-0.5,1.9-0.8,2.9c-2.4,6.6-12.5,9.4-20,9.6c-10.4,0.2-20.5-3.5-20.5-10.8c0-2.1,5.4-23.3,22.8-43
				C32.2,84.8,43.9,75.3,59.4,68.5z"/>
			<path class="st44" d="M59.6,68.5c13.4-5.8,29.7-9.6,49.5-9.3c5.8,0.1,11.2,0.5,17.4,1.3c1.4,0.2,2.2,3.1,0.6,5.3
				c-0.6,0.9-1.6,1.7-3,2.2c-2.2,0.7-4.7,1.2-7.5,1.3C95.1,70,78.8,75.8,66.7,86.6c-6.1,5.5-11.1,12.2-15.2,20.2
				c-4.2,8.3-7.3,18-9.4,29c-0.2,1-0.5,1.9-0.8,2.9c-2.3,6.6-12.4,9.5-20,9.6c-10.4,0.2-20.5-3.5-20.5-10.7
				c0-2.1,5.4-23.3,22.9-43.1C32.3,84.8,44,75.2,59.6,68.5z"/>
			<path class="st45" d="M59.7,68.4c13.4-5.8,29.6-9.6,49.4-9.2c5.7,0.1,11.2,0.5,17.4,1.3c1.4,0.2,2.2,3.1,0.6,5.3
				c-0.6,0.9-1.6,1.7-3,2.1c-2.2,0.7-4.7,1.2-7.5,1.3C95,70,78.7,75.8,66.7,86.5c-6.1,5.5-11.1,12.2-15.1,20.2
				c-4.2,8.3-7.3,18-9.5,28.9c-0.2,1-0.5,1.9-0.8,2.9c-2.3,6.6-12.3,9.5-19.9,9.6c-10.4,0.2-20.5-3.5-20.5-10.7
				c0-2,5.4-23.4,22.9-43.1C32.4,84.7,44.1,75.2,59.7,68.4z"/>
			<path class="st46" d="M59.9,68.4c13.3-5.8,29.6-9.5,49.3-9.2c5.7,0.1,11.2,0.5,17.3,1.3c1.4,0.2,2.2,3.1,0.5,5.3
				c-0.6,0.9-1.6,1.7-3,2.1c-2.2,0.6-4.7,1.1-7.5,1.2C94.9,70,78.7,75.8,66.7,86.5c-6.1,5.5-11.1,12.2-15.1,20.2
				c-4.2,8.3-7.3,18-9.5,28.9c-0.2,1-0.5,1.9-0.8,2.9c-2.3,6.6-12.2,9.5-19.9,9.7c-10.4,0.2-20.5-3.5-20.5-10.7
				c0-2,5.4-23.4,23-43.1C32.5,84.7,44.3,75.1,59.9,68.4z"/>
			<path class="st47" d="M60,68.4c13.3-5.7,29.5-9.4,49.2-9.1c5.7,0.1,11.1,0.5,17.3,1.3c1.4,0.2,2.1,3.1,0.4,5.3
				c-0.7,0.9-1.6,1.6-3.1,2c-2.2,0.6-4.7,1.1-7.5,1.2C94.9,70,78.6,75.8,66.6,86.5c-6.1,5.5-11.1,12.2-15.1,20.2
				c-4.2,8.3-7.3,18-9.5,28.9c-0.2,1-0.5,1.9-0.8,2.9c-2.2,6.6-12.1,9.5-19.9,9.7C11,148.3,1,144.7,0.9,137.4
				c0-2,5.4-23.4,23.1-43.2C32.6,84.6,44.4,75.1,60,68.4z"/>
			<path class="st48" d="M60.2,68.3c13.3-5.7,29.5-9.4,49.1-9c5.7,0.1,11.1,0.5,17.3,1.3c1.4,0.2,2.1,3.2,0.4,5.3
				c-0.7,0.8-1.6,1.6-3.1,2c-2.2,0.6-4.7,1.1-7.5,1.2C94.8,70,78.6,75.8,66.6,86.5c-6.1,5.5-11.1,12.2-15.1,20.2
				c-4.2,8.3-7.3,18-9.5,28.9c-0.2,1-0.5,1.9-0.8,2.9c-2.2,6.6-12.1,9.6-19.8,9.7C11.1,148.3,1,144.7,1,137.4
				c0-2,5.5-23.4,23.1-43.2C32.7,84.6,44.5,75,60.2,68.3z"/>
			<path class="st49" d="M60.4,68.3c13.3-5.7,29.4-9.3,49-8.9c5.7,0.1,11.1,0.5,17.2,1.3c1.4,0.2,2.1,3.2,0.3,5.3
				c-0.7,0.8-1.7,1.6-3.1,2c-2.2,0.6-4.7,1-7.5,1.1c-21.4,0.8-37.7,6.7-49.6,17.4c-6.1,5.5-11.1,12.2-15.1,20.1
				c-4.2,8.3-7.3,17.9-9.5,28.9c-0.2,1-0.5,1.9-0.8,2.9c-2.2,6.6-12,9.6-19.8,9.8C11.1,148.3,1,144.7,1,137.4
				c0-2,5.5-23.4,23.2-43.2C32.8,84.5,44.6,75,60.4,68.3z"/>
			<path class="st50" d="M60.5,68.3c13.3-5.6,29.4-9.2,48.9-8.9c5.6,0.1,11.1,0.5,17.2,1.3c1.3,0.2,2.1,3.2,0.3,5.3
				c-0.7,0.8-1.7,1.6-3.2,1.9c-2.3,0.6-4.8,1-7.6,1.1c-21.4,0.8-37.6,6.7-49.6,17.4c-6.1,5.5-11.1,12.2-15.1,20.1
				c-4.2,8.3-7.3,17.9-9.5,28.8c-0.2,1-0.4,1.9-0.7,2.9c-2.1,6.6-11.9,9.6-19.7,9.8C11.1,148.3,1,144.7,1,137.4
				c0-2,5.5-23.5,23.2-43.3C32.9,84.5,44.8,74.9,60.5,68.3z"/>
			<path class="st51" d="M60.7,68.2c13.3-5.6,29.3-9.2,48.8-8.8c5.6,0.1,11.1,0.5,17.1,1.3c1.3,0.2,2,3.2,0.2,5.3
				c-0.7,0.8-1.7,1.5-3.2,1.9c-2.3,0.5-4.8,1-7.6,1.1c-21.4,0.8-37.6,6.7-49.5,17.4c-6.1,5.5-11.1,12.2-15.1,20.1
				c-4.2,8.3-7.3,17.9-9.5,28.8c-0.2,1-0.4,1.9-0.7,2.9c-2.1,6.6-11.8,9.6-19.7,9.8C11.1,148.3,1,144.7,1,137.4
				c0-2,5.5-23.5,23.3-43.3C33,84.4,44.9,74.9,60.7,68.2z"/>
			<path class="st52" d="M60.8,68.2c13.2-5.6,29.3-9.1,48.6-8.7c5.6,0.1,11,0.6,17.1,1.3c1.3,0.2,2,3.2,0.2,5.4
				c-0.7,0.8-1.7,1.5-3.2,1.8c-2.3,0.5-4.8,0.9-7.6,1c-21.4,0.9-37.6,6.8-49.5,17.5c-6.1,5.5-11.1,12.2-15.1,20.1
				c-4.2,8.3-7.3,17.9-9.5,28.8c-0.2,1-0.4,1.9-0.7,2.9c-2,6.7-11.7,9.7-19.7,9.8C11.2,148.3,1,144.7,1,137.4
				c0-2,5.5-23.5,23.3-43.3C33.1,84.4,45,74.8,60.8,68.2z"/>
			<path class="st53" d="M61,68.2c13.2-5.5,29.2-9,48.5-8.6c5.6,0.1,11,0.6,17,1.3c1.3,0.2,2,3.2,0.1,5.4c-0.7,0.8-1.7,1.5-3.3,1.8
				c-2.3,0.5-4.8,0.9-7.6,1c-21.4,0.9-37.5,6.8-49.4,17.5c-6.1,5.5-11.1,12.2-15.1,20.1c-4.2,8.3-7.3,17.9-9.5,28.8
				c-0.2,1-0.4,1.9-0.7,2.9c-2,6.7-11.6,9.7-19.6,9.9c-10.3,0.2-20.4-3.5-20.4-10.7c0-1.9,5.5-23.5,23.4-43.4
				C33.2,84.3,45.2,74.8,61,68.2z"/>
			<path class="st54" d="M61.2,68.1c13.2-5.5,29.2-9,48.4-8.6c5.6,0.1,11,0.6,17,1.3c1.3,0.2,2,3.3,0,5.4c-0.7,0.8-1.8,1.5-3.3,1.8
				c-2.3,0.5-4.8,0.8-7.6,0.9c-21.3,0.9-37.5,6.8-49.4,17.5c-6.1,5.5-11.1,12.2-15.1,20.1c-4.2,8.3-7.3,17.9-9.5,28.8
				c-0.2,1-0.4,1.9-0.7,2.9c-2,6.7-11.6,9.7-19.6,9.9c-10.3,0.2-20.4-3.5-20.4-10.6c0-1.9,5.6-23.5,23.4-43.4
				C33.3,84.3,45.3,74.7,61.2,68.1z"/>
			<path class="st55" d="M61.3,68.1c13.2-5.5,29.1-8.9,48.3-8.5c5.5,0.1,11,0.6,17,1.3c1.3,0.2,2,3.3,0,5.4
				c-0.7,0.8-1.8,1.4-3.3,1.7c-2.3,0.4-4.9,0.8-7.6,0.9c-21.3,0.9-37.4,6.9-49.3,17.5c-6.1,5.5-11.1,12.2-15.1,20.1
				c-4.2,8.3-7.3,17.9-9.5,28.8c-0.2,1-0.4,1.9-0.7,2.9c-1.9,6.7-11.5,9.7-19.5,9.9c-10.3,0.2-20.4-3.5-20.4-10.6
				c0-1.9,5.6-23.6,23.5-43.5C33.4,84.2,45.4,74.7,61.3,68.1z"/>
			<path class="st56" d="M61.5,68c13.2-5.4,29.1-8.8,48.2-8.4c5.5,0.1,10.9,0.6,16.9,1.3c1.3,0.2,1.9,3.3-0.1,5.4
				c-0.7,0.8-1.8,1.4-3.4,1.7c-2.4,0.4-4.9,0.8-7.6,0.9c-21.3,0.9-37.4,6.9-49.3,17.6c-6.1,5.5-11.1,12.2-15.1,20.1
				c-4.2,8.3-7.3,17.9-9.5,28.7c-0.2,1-0.4,1.9-0.7,2.9c-1.9,6.7-11.4,9.8-19.5,10c-10.2,0.2-20.4-3.4-20.4-10.6
				c0-1.9,5.6-23.6,23.6-43.5C33.5,84.2,45.5,74.6,61.5,68z"/>
			<path class="st57" d="M61.6,68c13.2-5.4,29-8.8,48.1-8.4c5.5,0.1,10.9,0.6,16.9,1.3c1.2,0.2,1.9,3.3-0.1,5.4
				c-0.7,0.8-1.8,1.4-3.4,1.7c-2.4,0.4-4.9,0.7-7.6,0.8c-21.3,0.9-37.4,6.9-49.2,17.6c-6.1,5.5-11.1,12.2-15.1,20
				c-4.2,8.3-7.3,17.9-9.5,28.7c-0.2,1-0.4,1.9-0.7,2.9c-1.9,6.7-11.3,9.8-19.5,10c-10.2,0.2-20.4-3.4-20.4-10.6
				c0-1.9,5.6-23.6,23.6-43.5C33.6,84.1,45.7,74.6,61.6,68z"/>
			<path class="st58" d="M61.8,68c13.1-5.4,29-8.7,48-8.3c5.5,0.1,10.9,0.6,16.8,1.3c1.2,0.2,1.9,3.3-0.2,5.4
				c-0.8,0.7-1.8,1.4-3.4,1.6c-2.4,0.4-4.9,0.7-7.6,0.8c-21.2,1-37.3,7-49.2,17.6c-6.1,5.5-11.1,12.2-15.1,20
				c-4.2,8.3-7.3,17.9-9.5,28.7c-0.2,1-0.4,1.9-0.7,2.9c-1.8,6.7-11.2,9.8-19.4,10c-10.2,0.2-20.4-3.4-20.4-10.6
				c0-1.9,5.6-23.6,23.7-43.6C33.7,84.1,45.8,74.5,61.8,68z"/>
			<path class="st59" d="M62,67.9c13.1-5.3,28.9-8.7,47.9-8.2c5.5,0.1,10.9,0.6,16.8,1.3c1.2,0.2,1.9,3.4-0.2,5.4
				c-0.8,0.7-1.9,1.4-3.5,1.6c-2.4,0.3-4.9,0.6-7.6,0.8c-21.2,1-37.3,7-49.1,17.6c-6.1,5.5-11.1,12.2-15.1,20
				c-4.2,8.3-7.3,17.9-9.5,28.7c-0.2,1-0.4,1.9-0.7,2.9c-1.8,6.7-11.2,9.8-19.4,10c-10.2,0.2-20.4-3.4-20.4-10.6
				c0-1.9,5.7-23.6,23.7-43.6C33.8,84,45.9,74.5,62,67.9z"/>
			<path class="st60" d="M62.1,67.9c13.1-5.3,28.9-8.6,47.8-8.1c5.4,0.1,10.9,0.6,16.8,1.3c1.2,0.2,1.9,3.4-0.3,5.4
				c-0.8,0.7-1.9,1.3-3.5,1.5c-2.4,0.3-5,0.6-7.6,0.7c-21.2,1-37.2,7-49.1,17.7c-6.1,5.5-11.1,12.2-15.1,20
				c-4.2,8.3-7.3,17.9-9.5,28.7c-0.2,1-0.4,1.9-0.7,2.9c-1.8,6.7-11.1,9.9-19.3,10.1c-10.2,0.2-20.4-3.4-20.4-10.6
				c0-1.9,5.7-23.7,23.8-43.6C33.9,84,46,74.4,62.1,67.9z"/>
			<path class="st61" d="M62.3,67.9c13.1-5.3,28.8-8.5,47.7-8.1c5.4,0.1,10.8,0.6,16.7,1.3c1.2,0.2,1.8,3.4-0.4,5.4
				c-0.8,0.7-1.9,1.3-3.5,1.5c-2.4,0.3-5,0.6-7.6,0.7c-21.2,1-37.2,7-49,17.7c-6.1,5.5-11.1,12.2-15,20c-4.2,8.3-7.3,17.9-9.5,28.6
				c-0.2,1-0.4,1.9-0.7,2.9c-1.7,6.7-11,9.9-19.3,10.1c-10.2,0.2-20.4-3.4-20.4-10.6c0-1.8,5.7-23.7,23.8-43.7
				C34,83.9,46.2,74.3,62.3,67.9z"/>
			<path class="st62" d="M62.4,67.8c13.1-5.2,28.8-8.5,47.6-8c5.4,0.1,10.8,0.6,16.7,1.3c1.2,0.2,1.8,3.4-0.4,5.4
				c-0.8,0.7-1.9,1.3-3.5,1.5c-2.5,0.3-5,0.5-7.6,0.7c-21.1,1-37.2,7.1-49,17.7c-6.1,5.5-11,12.2-15,20c-4.2,8.3-7.3,17.9-9.5,28.6
				c-0.2,1-0.4,1.9-0.7,2.9c-1.7,6.8-10.9,9.9-19.3,10.1c-10.2,0.2-20.4-3.4-20.4-10.6c0-1.8,5.7-23.7,23.9-43.7
				C34.1,83.9,46.3,74.3,62.4,67.8z"/>
			<path class="st63" d="M62.6,67.8c13-5.2,28.7-8.4,47.5-7.9c5.4,0.1,10.8,0.6,16.6,1.3c1.2,0.2,1.8,3.4-0.5,5.4
				c-0.8,0.7-1.9,1.3-3.6,1.4c-2.5,0.3-5,0.5-7.6,0.6c-21.1,1-37.1,7.1-48.9,17.7c-6.1,5.5-11,12.2-15,20
				c-4.2,8.3-7.4,17.8-9.5,28.6c-0.2,1-0.4,1.9-0.7,2.9c-1.7,6.8-10.8,9.9-19.2,10.1c-10.2,0.2-20.3-3.4-20.4-10.6
				c0-1.8,5.7-23.7,23.9-43.7C34.2,83.8,46.4,74.2,62.6,67.8z"/>
			<path class="st64" d="M62.7,67.8c13-5.2,28.7-8.3,47.3-7.8c5.4,0.1,10.8,0.6,16.6,1.3c1.1,0.1,1.8,3.4-0.5,5.4
				c-0.8,0.7-2,1.2-3.6,1.4c-2.5,0.2-5,0.5-7.7,0.6C93.8,69.7,77.8,75.8,66,86.4c-6.1,5.5-11,12.1-15,20c-4.2,8.3-7.4,17.8-9.5,28.6
				c-0.2,1-0.4,1.9-0.6,2.9c-1.6,6.8-10.8,10-19.2,10.2c-10.1,0.2-20.3-3.4-20.3-10.5c0-1.8,5.8-23.7,24-43.8
				C34.3,83.7,46.5,74.2,62.7,67.8z"/>
			<path class="st65" d="M62.9,67.7c13-5.2,28.6-8.3,47.2-7.8c5.3,0.1,10.7,0.6,16.5,1.3c1.1,0.1,1.7,3.5-0.6,5.4
				c-0.8,0.7-2,1.2-3.6,1.4c-2.5,0.2-5.1,0.4-7.7,0.5c-21.1,1.1-37,7.2-48.8,17.8c-6.1,5.5-11,12.1-15,20
				c-4.2,8.3-7.4,17.8-9.5,28.6c-0.2,1-0.4,1.9-0.6,2.9c-1.6,6.8-10.7,10-19.1,10.2c-10.1,0.2-20.3-3.4-20.3-10.5
				c0-1.8,5.8-23.8,24.1-43.8C34.4,83.7,46.7,74.1,62.9,67.7z"/>
			<path class="st66" d="M63.1,67.7c13-5.1,28.6-8.2,47.1-7.7c5.3,0.1,10.7,0.6,16.5,1.3c1.1,0.1,1.7,3.5-0.6,5.4
				c-0.8,0.7-2,1.2-3.7,1.3c-2.5,0.2-5.1,0.4-7.7,0.5c-21.1,1.1-37,7.2-48.8,17.8c-6.1,5.5-11,12.1-15,19.9
				c-4.2,8.3-7.4,17.8-9.6,28.5c-0.2,1-0.4,1.9-0.6,2.9c-1.6,6.8-10.6,10-19.1,10.2c-10.1,0.2-20.3-3.4-20.3-10.5
				c0-1.8,5.8-23.8,24.1-43.8C34.5,83.6,46.8,74.1,63.1,67.7z"/>
			<path class="st67" d="M63.2,67.7c13-5.1,28.5-8.1,47-7.6c5.3,0.1,10.7,0.6,16.5,1.3c1.1,0.1,1.7,3.5-0.7,5.4
				c-0.8,0.7-2,1.2-3.7,1.3c-2.5,0.2-5.1,0.3-7.7,0.5c-21,1.1-37,7.2-48.7,17.8c-6.1,5.5-11,12.1-15,19.9
				c-4.2,8.3-7.4,17.8-9.6,28.5c-0.2,1-0.4,1.9-0.6,2.9c-1.5,6.8-10.5,10-19.1,10.3c-10.1,0.2-20.3-3.4-20.3-10.5
				c0-1.8,5.8-23.8,24.2-43.9C34.6,83.6,46.9,74,63.2,67.7z"/>
			<path class="st68" d="M63.4,67.6c13-5.1,28.5-8.1,46.9-7.6c5.3,0.1,10.7,0.6,16.4,1.3c1.1,0.1,1.7,3.5-0.8,5.4
				c-0.8,0.7-2,1.1-3.7,1.2c-2.6,0.1-5.1,0.3-7.7,0.4c-21,1.1-36.9,7.3-48.7,17.9c-6.1,5.5-11,12.1-15,19.9
				c-4.2,8.3-7.4,17.8-9.6,28.5c-0.2,1-0.4,1.9-0.6,2.9c-1.5,6.8-10.4,10.1-19,10.3c-10.1,0.2-20.3-3.4-20.3-10.5
				c0-1.8,5.8-23.8,24.2-43.9C34.7,83.5,47.1,74,63.4,67.6z"/>
			<path class="st69" d="M63.5,67.6c12.9-5,28.4-8,46.8-7.5c5.3,0.1,10.6,0.6,16.4,1.3c1.1,0.1,1.7,3.6-0.8,5.4
				c-0.9,0.6-2.1,1.1-3.8,1.2c-2.6,0.1-5.1,0.3-7.7,0.4c-21,1.1-36.9,7.3-48.6,17.9c-6.1,5.5-11,12.1-15,19.9
				c-4.2,8.3-7.4,17.8-9.6,28.5c-0.2,1-0.4,1.9-0.6,2.9c-1.5,6.8-10.4,10.1-19,10.3c-10.1,0.3-20.3-3.4-20.3-10.5
				c0-1.7,5.8-23.8,24.3-43.9C34.8,83.5,47.2,73.9,63.5,67.6z"/>
			<path class="st70" d="M63.7,67.6c12.9-5,28.3-7.9,46.7-7.4c5.2,0.1,10.6,0.6,16.3,1.3c1.1,0.1,1.6,3.6-0.9,5.4
				c-0.9,0.6-2.1,1.1-3.8,1.2c-2.6,0.1-5.1,0.2-7.7,0.4c-21,1.1-36.8,7.3-48.6,17.9c-6.1,5.5-11,12.1-15,19.9
				c-4.2,8.3-7.4,17.8-9.6,28.5c-0.2,1-0.4,1.9-0.6,2.9c-1.4,6.8-10.3,10.1-18.9,10.3c-10.1,0.3-20.3-3.4-20.3-10.5
				c0-1.7,5.9-23.9,24.3-44C34.9,83.4,47.3,73.9,63.7,67.6z"/>
			<path class="st71" d="M63.9,67.5c12.9-5,28.3-7.9,46.6-7.3c5.2,0.1,10.6,0.6,16.3,1.3c1,0.1,1.6,3.6-0.9,5.4
				c-0.9,0.6-2.1,1.1-3.8,1.1c-2.6,0.1-5.2,0.2-7.7,0.3c-21,1.2-36.8,7.3-48.5,17.9c-6.1,5.5-11,12.1-15,19.9
				c-4.2,8.3-7.4,17.8-9.6,28.5c-0.2,1-0.4,1.9-0.6,2.9c-1.4,6.8-10.2,10.1-18.9,10.4c-10.1,0.3-20.3-3.4-20.3-10.5
				c0-1.7,5.9-23.9,24.4-44C35,83.4,47.4,73.8,63.9,67.5z"/>
			<path class="st72" d="M64,67.5c12.9-4.9,28.2-7.8,46.5-7.3c5.2,0.2,10.6,0.6,16.2,1.3c1,0.1,1.6,3.6-1,5.4
				c-0.9,0.6-2.1,1.1-3.9,1.1c-2.6,0-5.2,0.1-7.7,0.3c-20.9,1.2-36.8,7.4-48.5,18c-6,5.5-11,12.1-15,19.9
				c-4.2,8.3-7.4,17.8-9.6,28.4c-0.2,1-0.4,1.9-0.6,2.9c-1.4,6.9-10.1,10.2-18.9,10.4c-10,0.3-20.3-3.4-20.3-10.5
				c0-1.7,5.9-23.9,24.5-44.1C35.1,83.3,47.6,73.8,64,67.5z"/>
			<path class="st73" d="M64.2,67.5c12.9-4.9,28.2-7.7,46.4-7.2c5.2,0.2,10.6,0.6,16.2,1.3c1,0.1,1.6,3.6-1,5.4
				c-0.9,0.6-2.2,1-3.9,1c-2.6,0-5.2,0.1-7.7,0.3c-20.9,1.2-36.7,7.4-48.4,18c-6,5.5-11,12.1-15,19.9c-4.2,8.3-7.4,17.8-9.6,28.4
				c-0.2,1-0.4,1.9-0.6,2.9c-1.3,6.9-10,10.2-18.8,10.4c-10,0.3-20.3-3.4-20.3-10.5c0-1.7,5.9-23.9,24.5-44.1
				C35.2,83.3,47.7,73.7,64.2,67.5z"/>
			<path class="st74" d="M126.8,61.6c-25.4-3.3-45.9-0.4-62.4,5.8c-16.5,6.2-29,15.8-38.3,25.9C7.4,113.5,1.5,135.8,1.5,137.4
				c0,13.2,36.3,14.7,39.1,0c4.1-21.9,12-39.3,25.1-51.1C78.7,74.4,97,68.1,121.7,68.1C128.7,68.1,128.1,61.8,126.8,61.6z"/>
		</g>
		<g>
			<g>
				<linearGradient id="SVGID_1_" gradientUnits="userSpaceOnUse" x1="1.0623" y1="51.6856" x2="109.3637" y2="102.1874">
					<stop  offset="0" style="stop-color:#54C2F0"/>
					<stop  offset="2.533357e-02" style="stop-color:#49B9EB"/>
					<stop  offset="0.1237" style="stop-color:#219ADA"/>
					<stop  offset="0.202" style="stop-color:#0987CF"/>
					<stop  offset="0.25" style="stop-color:#0080CB"/>
					<stop  offset="0.4" style="stop-color:#0068B6"/>
					<stop  offset="0.64" style="stop-color:#005BAB"/>
					<stop  offset="1" style="stop-color:#004DA0"/>
				</linearGradient>
				<path class="st75" d="M70.6,0C40.9,0,0,18.1,0,75v62.8c0,14.5,40.4,14.5,40.4,0l0-65c0-26.7,16.8-46.8,40.4-47.3
					c18.6-0.4,33.6,9.1,33.6,36.1c0,6.8,13.4,6.8,13.4,0C127.8,15.9,102.5,0,70.6,0z"/>
			</g>
		</g>
	</g>
	<g>
		<path class="st76" d="M167.8,145.5h-14.7c-1.3,0-1.8-0.9-2.4-1.8l-17.4-23.4h-1.7c-3.1,0-8-0.3-10.7-0.4v23.8c0,1-1,1.8-2.3,1.8
			h-12.1c-1.3,0-2.4-0.8-2.4-1.8V83.4c0-1.8,1.4-2.4,3.9-2.6c6.3-0.7,14.8-1.1,23.6-1.1c18.6,0,34.7,4.8,34.7,19.8v0.8
			c0,9.3-6.4,15.1-16.3,17.9l18.9,25.6C169.6,144.6,169.2,145.5,167.8,145.5z M149.7,99.5c0-6.6-6-9.4-18.1-9.4
			c-2.5,0-8.6,0.2-10.7,0.3v19.7c1.9,0.1,8.7,0.3,10.7,0.3c12.4,0,18.1-2.5,18.1-10.2V99.5z"/>
		<path class="st76" d="M232.5,145c-3.9,0.4-8.6,1.2-22.9,1.2c-15.7,0-27.9-3.1-27.9-18V97.6c0-14.9,12.2-18,27.9-18
			c14.3,0,19,0.8,22.9,1.2c1.8,0.2,2.4,0.6,2.4,1.8v5.6c0,1-1.1,1.8-2.4,1.8h-24.6c-7,0-9.5,1.8-9.5,7.5v9.5H231
			c1.3,0,2.4,0.8,2.4,1.8v6.3c0,1-1.1,1.8-2.4,1.8h-32.7v11.3c0,5.8,2.5,7.5,9.5,7.5h24.6c1.3,0,2.4,0.8,2.4,1.8v5.6
			C234.9,144.4,234.3,144.8,232.5,145z"/>
		<path class="st76" d="M300.7,144.8c-1.8,0.4-9.8,1.4-19.1,1.4c-14.5,0-34.1-5.2-34.1-26.8v-12.9c0-22,19.7-26.8,34.1-26.8
			c9.3,0,17.2,1.1,19.1,1.4c1.6,0.3,2.7,0.8,2.7,2v5.9c0,1.1-0.7,1.9-2.7,1.8c-4.2-0.3-12.4-0.7-18.8-0.7
			c-10.1,0-17.5,3.9-17.5,16.4v12.9c0,12.2,7.4,16.4,17.5,16.4c6.4,0,14.6-0.4,18.8-0.7c1.9-0.1,2.7,0.7,2.7,1.8v5.9
			C303.4,144,302.3,144.5,300.7,144.8z"/>
		<path class="st76" d="M380.3,145.5h-14.7c-1.3,0-1.8-0.9-2.4-1.8l-17.4-23.4h-1.7c-3.1,0-8-0.3-10.7-0.4v23.8c0,1-1,1.8-2.3,1.8
			h-12.1c-1.3,0-2.4-0.8-2.4-1.8V83.4c0-1.8,1.4-2.4,3.9-2.6c6.3-0.7,14.8-1.1,23.6-1.1c18.6,0,34.7,4.8,34.7,19.8v0.8
			c0,9.3-6.4,15.1-16.3,17.9l18.9,25.6C382.1,144.6,381.6,145.5,380.3,145.5z M362.2,99.5c0-6.6-6-9.4-18.1-9.4
			c-2.5,0-8.6,0.2-10.7,0.3v19.7c1.9,0.1,8.7,0.3,10.7,0.3c12.4,0,18.1-2.5,18.1-10.2V99.5z"/>
		<path class="st76" d="M451.6,144.7c-4.2,0.4-19.4,1.5-26.8,1.5c-19.4,0-32.9-6-32.9-24.6V82c0-1,1.1-1.7,2.4-1.7h11.9
			c1.3,0,2.4,0.7,2.4,1.7v39.6c0,10,3.1,14.6,16.2,14.6c4.8,0,12.2-0.3,16.6-0.7V82c0-1,1-1.7,2.3-1.7h11.9c1.3,0,2.4,0.7,2.4,1.7
			v57.4C458.1,143,455.9,144.3,451.6,144.7z"/>
		<path class="st76" d="M489.3,145.5h-11.9c-1.3,0-2.4-0.8-2.4-1.8V82c0-1,1.1-1.7,2.4-1.7h11.9c1.3,0,2.4,0.7,2.4,1.7v61.7
			C491.7,144.7,490.6,145.5,489.3,145.5z"/>
		<path class="st76" d="M564.5,90.5h-21.1v53.2c0,1-1.1,1.8-2.4,1.8h-11.9c-1.3,0-2.4-0.8-2.4-1.8V90.5h-21.1
			c-1.3,0-2.4-0.6-2.4-1.6V82c0-1,1.1-1.7,2.4-1.7h59c1.3,0,2.4,0.7,2.4,1.7v6.9C566.9,89.9,565.8,90.5,564.5,90.5z"/>
	</g>
</g>
</svg>
