<?xml version="1.0" encoding="utf-8"?>
<!-- Generator: Adobe Illustrator 21.0.2, SVG Export Plug-In . SVG Version: 6.00 Build 0)  -->
<svg version="1.1" id="レイヤー_1" xmlns="http://www.w3.org/2000/svg" xmlns:xlink="http://www.w3.org/1999/xlink" x="0px"
	 y="0px" viewBox="0 0 512 512" style="enable-background:new 0 0 512 512;" xml:space="preserve">
<style type="text/css">
	.st0{fill:#C6CDD0;}
</style>
<title></title>
<g id="icomoon-ignore">
</g>
<path class="st0" d="M0,512h256V0H0V512z M160,64h64v64h-64V64z M160,192h64v64h-64V192z M160,320h64v64h-64V320z M32,64h64v64H32
	V64z M32,192h64v64H32V192z M32,320h64v64H32V320z M288,160h224v32H288V160z M288,512h64V384h96v128h64V224H288V512z"/>
</svg>
