<svg viewBox="0 0 14 12" style="background-color:#ffffff00" xmlns="http://www.w3.org/2000/svg" width="14" height="12"><path d="M7.813 11.988s2.662-.005 2.929 0c.305.006.649.082.95-.218.304-.305.245-.895.245-.895V6.956l1.254.001s.595-.051.768-.412c.197-.396-.378-.885-.378-.885L7.65.283S7.319.01 7.006 0c-.338 0-.626.283-.626.283S.85 5.38.48 5.66c-.381.367-.55.549-.453.885.17.388.738.431.738.431h1.278v3.918s-.05.547.298.864c.329.3.913.237.913.237l2.918-.01.008-3.638c0-.345.033-.616.603-.616l.426-.008c.515 0 .604.288.604.634v3.63z" fill="#777"/></svg>