<?xml version="1.0" encoding="utf-8"?>
<!-- Generator: Adobe Illustrator 21.0.2, SVG Export Plug-In . SVG Version: 6.00 Build 0)  -->
<svg version="1.1" id="レイヤー_1" xmlns="http://www.w3.org/2000/svg" xmlns:xlink="http://www.w3.org/1999/xlink" x="0px"
	 y="0px" viewBox="0 0 566.9 148.7" style="enable-background:new 0 0 566.9 148.7;" xml:space="preserve">
<style type="text/css">
	.st0{fill:url(#SVGID_1_);}
	.st1{fill:#999999;}
	.st2{fill:#FFFFFF;}
</style>
<g>
	<g>
		<g>
			<g>
				<linearGradient id="SVGID_1_" gradientUnits="userSpaceOnUse" x1="1.0623" y1="50.6856" x2="109.3637" y2="101.1874">
					<stop  offset="0" style="stop-color:#54C2F0"/>
					<stop  offset="2.533357e-02" style="stop-color:#49B9EB"/>
					<stop  offset="0.1237" style="stop-color:#219ADA"/>
					<stop  offset="0.202" style="stop-color:#0987CF"/>
					<stop  offset="0.25" style="stop-color:#0080CB"/>
					<stop  offset="0.4" style="stop-color:#0068B6"/>
					<stop  offset="0.64" style="stop-color:#005BAB"/>
					<stop  offset="1" style="stop-color:#004DA0"/>
				</linearGradient>
				<path class="st0" d="M70.6-1C40.9-1,0,17.1,0,74v62.8c0,14.5,40.4,14.5,40.4,0l0-65c0-26.7,16.8-46.8,40.4-47.3
					c18.6-0.4,33.6,9.1,33.6,36.1c0,6.8,13.4,6.8,13.4,0C127.8,14.9,102.5-1,70.6-1z"/>
			</g>
		</g>
		<g>
			<circle class="st1" cx="41.8" cy="83.3" r="0.9"/>
			<circle class="st1" cx="41.8" cy="78" r="0.8"/>
			<circle class="st1" cx="41.8" cy="88.6" r="0.9"/>
			<circle class="st1" cx="41.8" cy="94" r="0.9"/>
			<circle class="st1" cx="41.8" cy="99.3" r="0.9"/>
			<circle class="st1" cx="41.8" cy="104.7" r="0.9"/>
			<circle class="st1" cx="41.8" cy="110.1" r="0.9"/>
			<circle class="st1" cx="41.8" cy="115.4" r="0.9"/>
			<circle class="st1" cx="41.8" cy="120.8" r="0.9"/>
			<circle class="st1" cx="41.8" cy="126.2" r="0.8"/>
			<circle class="st1" cx="44.5" cy="112.8" r="0.9"/>
			<circle class="st1" cx="44.4" cy="118.1" r="0.8"/>
			<circle class="st1" cx="44.4" cy="123.5" r="0.3"/>
			<circle class="st1" cx="44.5" cy="107.4" r="0.9"/>
			<circle class="st1" cx="44.5" cy="102" r="0.9"/>
			<circle class="st1" cx="44.5" cy="96.6" r="0.9"/>
			<circle class="st1" cx="44.5" cy="91.3" r="0.9"/>
			<circle class="st1" cx="44.5" cy="85.9" r="0.9"/>
			<circle class="st1" cx="47.2" cy="88.6" r="0.9"/>
			<circle class="st1" cx="47.2" cy="83.2" r="0.9"/>
			<circle class="st1" cx="47.2" cy="77.9" r="0.9"/>
			<circle class="st1" cx="49.9" cy="75.2" r="0.9"/>
			<circle class="st1" cx="52.6" cy="72.5" r="0.9"/>
			<circle class="st1" cx="52.6" cy="77.9" r="0.9"/>
			<circle class="st1" cx="55.2" cy="75.2" r="0.9"/>
			<circle class="st1" cx="57.9" cy="72.5" r="0.9"/>
			<circle class="st1" cx="60.6" cy="69.8" r="0.9"/>
			<circle class="st1" cx="60.6" cy="75.2" r="0.9"/>
			<circle class="st1" cx="60.6" cy="80.6" r="0.9"/>
			<circle class="st1" cx="60.6" cy="85.9" r="0.9"/>
			<circle class="st1" cx="63.3" cy="83.2" r="0.9"/>
			<circle class="st1" cx="66" cy="80.6" r="0.9"/>
			<circle class="st1" cx="66" cy="85.9" r="0.1"/>
			<circle class="st1" cx="68.6" cy="83.2" r="0.2"/>
			<circle class="st1" cx="66" cy="75.2" r="0.9"/>
			<circle class="st1" cx="68.7" cy="77.9" r="0.9"/>
			<circle class="st1" cx="71.3" cy="75.2" r="0.9"/>
			<circle class="st1" cx="74" cy="72.5" r="0.9"/>
			<circle class="st1" cx="76.7" cy="69.8" r="0.9"/>
			<circle class="st1" cx="82.1" cy="69.8" r="0.9"/>
			<circle class="st1" cx="82.1" cy="64.5" r="0.9"/>
			<circle class="st1" cx="84.8" cy="67.2" r="0.9"/>
			<circle class="st1" cx="87.5" cy="64.5" r="0.9"/>
			<circle class="st1" cx="90.1" cy="61.8" r="0.9"/>
			<circle class="st1" cx="90.1" cy="67.2" r="0.9"/>
			<circle class="st1" cx="92.8" cy="64.5" r="0.9"/>
			<circle class="st1" cx="95.5" cy="61.8" r="0.9"/>
			<circle class="st1" cx="98.2" cy="64.5" r="0.9"/>
			<circle class="st1" cx="103.5" cy="64.5" r="0.9"/>
			<circle class="st1" cx="103.5" cy="59.2" r="0.8"/>
			<circle class="st1" cx="100.8" cy="61.8" r="0.9"/>
			<circle class="st1" cx="106.2" cy="61.8" r="0.9"/>
			<circle class="st1" cx="111.6" cy="61.8" r="0.9"/>
			<circle class="st1" cx="114.2" cy="64.4" r="0.7"/>
			<circle class="st1" cx="126.8" cy="64.4" r="0.3"/>
			<circle class="st1" cx="108.9" cy="64.5" r="0.9"/>
			<circle class="st1" cx="108.9" cy="59.2" r="0.8"/>
			<circle class="st1" cx="106.2" cy="56.5" r="0.2"/>
			<circle class="st1" cx="111.6" cy="56.5" r="0.2"/>
			<circle class="st1" cx="106.2" cy="67" r="0.5"/>
			<circle class="st1" cx="111.6" cy="67.1" r="0.2"/>
			<circle class="st1" cx="117" cy="67.1" r="0.2"/>
			<circle class="st1" cx="122.3" cy="67.1" r="0.2"/>
			<circle class="st1" cx="100.8" cy="56.5" r="0.2"/>
			<circle class="st1" cx="100.8" cy="67" r="0.7"/>
			<circle class="st1" cx="98.2" cy="59.2" r="0.8"/>
			<circle class="st1" cx="95.5" cy="67.2" r="0.8"/>
			<circle class="st1" cx="92.8" cy="59.3" r="0.8"/>
			<ellipse class="st1" cx="92.7" cy="69.6" rx="0.5" ry="0.5"/>
			<circle class="st1" cx="87.5" cy="59.3" r="0.6"/>
			<circle class="st1" cx="87.4" cy="69.8" r="0.8"/>
			<circle class="st1" cx="84.7" cy="72.3" r="0.5"/>
			<circle class="st1" cx="84.8" cy="61.8" r="0.9"/>
			<circle class="st1" cx="82.1" cy="59.2" r="0.3"/>
			<circle class="st1" cx="79.4" cy="72.5" r="0.9"/>
			<circle class="st1" cx="79.4" cy="67.2" r="0.9"/>
			<circle class="st1" cx="79.4" cy="61.8" r="0.8"/>
			<circle class="st1" cx="76.6" cy="75.1" r="0.8"/>
			<circle class="st1" cx="76.7" cy="64.5" r="0.9"/>
			<circle class="st1" cx="73.9" cy="77.7" r="0.6"/>
			<circle class="st1" cx="74" cy="67.2" r="0.9"/>
			<circle class="st1" cx="74" cy="62" r="0.6"/>
			<circle class="st1" cx="71.2" cy="80.5" r="0.4"/>
			<circle class="st1" cx="71.3" cy="69.8" r="0.9"/>
			<circle class="st1" cx="71.3" cy="64.5" r="0.9"/>
			<circle class="st1" cx="68.7" cy="72.5" r="0.9"/>
			<circle class="st1" cx="68.7" cy="67.2" r="0.9"/>
			<circle class="st1" cx="66" cy="69.8" r="0.9"/>
			<circle class="st1" cx="66" cy="64.7" r="0.6"/>
			<circle class="st1" cx="63.3" cy="88.6" r="0.2"/>
			<circle class="st1" cx="63.3" cy="77.9" r="0.9"/>
			<circle class="st1" cx="63.3" cy="72.5" r="0.9"/>
			<ellipse class="st1" cx="63.3" cy="67.2" rx="0.9" ry="0.9"/>
			<circle class="st1" cx="60.6" cy="91.3" r="0.2"/>
			<circle class="st1" cx="58" cy="67.3" r="0.4"/>
			<circle class="st1" cx="57.9" cy="77.9" r="0.9"/>
			<circle class="st1" cx="57.9" cy="83.2" r="0.9"/>
			<circle class="st1" cx="57.9" cy="88.6" r="0.9"/>
			<circle class="st1" cx="57.8" cy="93.9" r="0.4"/>
			<circle class="st1" cx="55.2" cy="69.9" r="0.8"/>
			<circle class="st1" cx="55.2" cy="80.6" r="0.9"/>
			<circle class="st1" cx="55.2" cy="85.9" r="0.9"/>
			<circle class="st1" cx="55.2" cy="91.3" r="0.9"/>
			<circle class="st1" cx="55.1" cy="96.5" r="0.6"/>
			<circle class="st1" cx="52.6" cy="83.3" r="0.9"/>
			<circle class="st1" cx="52.6" cy="88.6" r="0.9"/>
			<circle class="st1" cx="52.6" cy="94" r="0.9"/>
			<circle class="st1" cx="52.5" cy="99.3" r="0.8"/>
			<circle class="st1" cx="49.9" cy="80.6" r="0.9"/>
			<circle class="st1" cx="49.9" cy="85.9" r="0.9"/>
			<circle class="st1" cx="49.9" cy="91.3" r="0.9"/>
			<circle class="st1" cx="49.9" cy="96.7" r="0.9"/>
			<circle class="st1" cx="49.9" cy="102" r="0.9"/>
			<circle class="st1" cx="49.7" cy="107.3" r="0.5"/>
			<circle class="st1" cx="47.2" cy="72.6" r="0.3"/>
			<circle class="st1" cx="47.2" cy="94" r="0.9"/>
			<circle class="st1" cx="47.2" cy="99.3" r="0.9"/>
			<circle class="st1" cx="47.2" cy="104.7" r="0.9"/>
			<circle class="st1" cx="47.1" cy="110" r="0.8"/>
			<path class="st1" d="M47.1,115.1c-0.2,0-0.3,0.1-0.3,0.3c0,0.2,0.1,0.3,0.3,0.3c0.2,0,0.3-0.1,0.3-0.3
				C47.4,115.2,47.3,115.1,47.1,115.1z"/>
			<circle class="st1" cx="44.5" cy="80.6" r="0.9"/>
			<circle class="st1" cx="44.6" cy="75.4" r="0.6"/>
			<circle class="st1" cx="41.6" cy="131.5" r="0.6"/>
		</g>
	</g>
	<g>
		<path class="st2" d="M167.8,144.5h-14.7c-1.3,0-1.8-0.9-2.4-1.8l-17.4-23.4h-1.7c-3.1,0-8-0.3-10.7-0.4v23.8c0,1-1,1.8-2.3,1.8
			h-12.1c-1.3,0-2.4-0.8-2.4-1.8V82.4c0-1.8,1.4-2.4,3.9-2.6c6.3-0.7,14.8-1.1,23.6-1.1c18.6,0,34.7,4.8,34.7,19.8v0.8
			c0,9.3-6.4,15.1-16.3,17.9l18.9,25.6C169.6,143.6,169.2,144.5,167.8,144.5z M149.7,98.5c0-6.6-6-9.4-18.1-9.4
			c-2.5,0-8.6,0.2-10.7,0.3v19.7c1.9,0.1,8.7,0.3,10.7,0.3c12.4,0,18.1-2.5,18.1-10.2V98.5z"/>
		<path class="st2" d="M232.5,144c-3.9,0.4-8.6,1.2-22.9,1.2c-15.7,0-27.9-3.1-27.9-18V96.6c0-14.9,12.2-18,27.9-18
			c14.3,0,19,0.8,22.9,1.2c1.8,0.2,2.4,0.6,2.4,1.8v5.6c0,1-1.1,1.8-2.4,1.8h-24.6c-7,0-9.5,1.8-9.5,7.5v9.5H231
			c1.3,0,2.4,0.8,2.4,1.8v6.3c0,1-1.1,1.8-2.4,1.8h-32.7v11.3c0,5.8,2.5,7.5,9.5,7.5h24.6c1.3,0,2.4,0.8,2.4,1.8v5.6
			C234.9,143.4,234.3,143.8,232.5,144z"/>
		<path class="st2" d="M300.7,143.8c-1.8,0.4-9.8,1.4-19.1,1.4c-14.5,0-34.1-5.2-34.1-26.8v-12.9c0-22,19.7-26.8,34.1-26.8
			c9.3,0,17.2,1.1,19.1,1.4c1.6,0.3,2.7,0.8,2.7,2v5.9c0,1.1-0.7,1.9-2.7,1.8c-4.2-0.3-12.4-0.7-18.8-0.7
			c-10.1,0-17.5,3.9-17.5,16.4v12.9c0,12.2,7.4,16.4,17.5,16.4c6.4,0,14.6-0.4,18.8-0.7c1.9-0.1,2.7,0.7,2.7,1.8v5.9
			C303.4,143,302.3,143.5,300.7,143.8z"/>
		<path class="st2" d="M380.3,144.5h-14.7c-1.3,0-1.8-0.9-2.4-1.8l-17.4-23.4h-1.7c-3.1,0-8-0.3-10.7-0.4v23.8c0,1-1,1.8-2.3,1.8
			h-12.1c-1.3,0-2.4-0.8-2.4-1.8V82.4c0-1.8,1.4-2.4,3.9-2.6c6.3-0.7,14.8-1.1,23.6-1.1c18.6,0,34.7,4.8,34.7,19.8v0.8
			c0,9.3-6.4,15.1-16.3,17.9l18.9,25.6C382.1,143.6,381.6,144.5,380.3,144.5z M362.2,98.5c0-6.6-6-9.4-18.1-9.4
			c-2.5,0-8.6,0.2-10.7,0.3v19.7c1.9,0.1,8.7,0.3,10.7,0.3c12.4,0,18.1-2.5,18.1-10.2V98.5z"/>
		<path class="st2" d="M451.6,143.7c-4.2,0.4-19.4,1.5-26.8,1.5c-19.4,0-32.9-6-32.9-24.6V81c0-1,1.1-1.7,2.4-1.7h11.9
			c1.3,0,2.4,0.7,2.4,1.7v39.6c0,10,3.1,14.6,16.2,14.6c4.8,0,12.2-0.3,16.6-0.7V81c0-1,1-1.7,2.3-1.7h11.9c1.3,0,2.4,0.7,2.4,1.7
			v57.4C458.1,142,455.9,143.3,451.6,143.7z"/>
		<path class="st2" d="M489.3,144.5h-11.9c-1.3,0-2.4-0.8-2.4-1.8V81c0-1,1.1-1.7,2.4-1.7h11.9c1.3,0,2.4,0.7,2.4,1.7v61.7
			C491.7,143.7,490.6,144.5,489.3,144.5z"/>
		<path class="st2" d="M564.5,89.5h-21.1v53.2c0,1-1.1,1.8-2.4,1.8h-11.9c-1.3,0-2.4-0.8-2.4-1.8V89.5h-21.1c-1.3,0-2.4-0.6-2.4-1.6
			V81c0-1,1.1-1.7,2.4-1.7h59c1.3,0,2.4,0.7,2.4,1.7v6.9C566.9,88.9,565.8,89.5,564.5,89.5z"/>
	</g>
</g>
</svg>
