<svg xmlns="http://www.w3.org/2000/svg" viewBox="0 0 210 61.97"><defs><style>.cls-1,.cls-3,.cls-4{fill:#003174;}.cls-2{fill:#fff;}.cls-3,.cls-4{font-size:9.2px;font-family:RodinPro-M, RodinPro M;}.cls-4{letter-spacing:0.16em;}.cls-5{letter-spacing:0em;}</style></defs><title>アセット 2</title><g id="レイヤー_2" data-name="レイヤー 2"><g id="レイヤー_1-2" data-name="レイヤー 1"><rect class="cls-1" y="8.79" width="53.17" height="53.17" rx="10.53" ry="10.53"/><path class="cls-2" d="M26.59,14.05a16.17,16.17,0,0,0-7.11,1.65V12.87H18.31v3.47a16.59,16.59,0,0,0-3,2.29V12.87H14.15v7a17.52,17.52,0,0,0,0,22.63V58h1.17V43.72a16.69,16.69,0,0,0,3,2.28V58h1.17V46.64a16,16,0,0,0,7.11,1.66c9.14,0,16.58-7.68,16.58-17.12S35.73,14.05,26.59,14.05M14.15,40.59a16.36,16.36,0,0,1,0-18.83ZM15.32,20.3a15.5,15.5,0,0,1,3-2.58V44.63a15.63,15.63,0,0,1-3-2.58ZM19.48,17a15,15,0,0,1,7.11-1.8c8.5,0,15.41,7.16,15.41,16s-6.91,16-15.41,16a14.9,14.9,0,0,1-7.11-1.8Z"/><path class="cls-1" d="M130.6,46.68c-5.5,0-6.57-1.42-6.57-5.32V27.2h-4.61v-1.7H124v-5h1.81v5h5.78v1.7h-5.78V40.9c0,2.8,0,4.12,4.47,4.12"/><path class="cls-1" d="M158.49,36.46c0,6.28,1.77,8.55,7.31,8.55,1.7,0,6.35,0,6.57-5h1.85c-.53,6.14-5.47,6.64-8.41,6.64-6.57,0-9.12-2.95-9.12-10.51,0-6.71,1.63-11,9-11,8.55,0,8.55,6,8.55,11.25Zm13.88-1.67c.07-7.13-3.3-7.92-6.6-7.92-6,0-7,3.19-7.28,7.92Z"/><path class="cls-1" d="M207.09,31.24c-.07-1.88-.11-4.37-6.25-4.37-5.36,0-6.25,2.09-6.25,4.44,0,2.59,1.35,2.91,3.9,3.3l6,.92c2.95.46,4.9,1.38,4.9,5.22,0,5.71-5.78,5.93-8.55,5.93-8.3,0-8.38-4.4-8.41-6.85h1.85c0,2.52,0,5.18,6.71,5.18,4,0,6.57-1,6.57-4.33,0-2.84-1.38-3.27-4.12-3.66L198,36.25c-2.34-.32-5.22-.89-5.22-5,0-2.84,1-6.07,8.16-6.07,8,0,8,4.33,8,6Z"/><path class="cls-1" d="M72,25.21c-4.76,0-5.89,2-6.74,3.37V25.49H63.42V51.15h1.85V43.24c.67,1.38,1.67,3.44,6.89,3.44,7.42,0,7.91-5.71,7.91-11.32,0-6.57-1.63-10.15-8.06-10.15M72,45c-4.34,0-6.42-1.53-6.71-7.33v-3C65.5,29.21,67,26.91,72,26.91c4.54,0,6.25,2.17,6.25,8.84C78.26,41.5,77.41,45,72,45"/><path class="cls-1" d="M93.23,25.21c-4.61,0-8.16,1.31-8.23,6.32h1.88c0-3.94,2.91-4.65,6.21-4.65,4.29,0,6.18.67,6.18,4.19,0,3-1,3.05-2.52,3.12l-6.32.35c-5,.28-6.21,3.41-6.21,6.28,0,5.39,4.51,5.86,7.81,5.86,5.46,0,6.62-1.87,7.2-3V46.4H101V31.84c0-3.69-.35-6.64-7.77-6.64M92,45c-4,0-6-.92-6-4,0-2.41.82-4.68,4.9-4.9l6.35-.36a2.88,2.88,0,0,0,2-.75v3.62c0,3.37-1,6.42-7.2,6.42"/><path class="cls-1" d="M114.81,25.21h-.51a6.33,6.33,0,0,0-5.64,3V25.49h-1.81V46.4h1.81v-11c0-2.84.85-8.48,5.64-8.48h2.16v-1.7h-1.66"/><path class="cls-1" d="M188.14,25.21h-.51a6.33,6.33,0,0,0-5.64,3V25.49h-1.81V46.4H182v-11c0-2.84.85-8.48,5.64-8.48h2.17v-1.7h-1.66"/><rect class="cls-1" x="130.31" y="45.01" width="1.31" height="1.67"/><path class="cls-1" d="M146,25.22l0,0c-3.77,0-5.9,0-7.77,2.69v-2.4h-1.85V46.4h1.85v-12c.16-2.41.94-5.79,3.48-7a8.13,8.13,0,0,1,2-.45h.17c.39,0,.81-.06,1.26-.06,4.61,0,5.54,2,5.54,5.75V46.4h1.81V32.16c0-2.5,0-6.65-6.48-6.94"/><text class="cls-3" transform="translate(63.42 8.09)">リ</text><text class="cls-3" transform="translate(73.72 8.09)">ク</text><text class="cls-3" transform="translate(84.57 8.09)">ル</text><text class="cls-3" transform="translate(95.05 8.09)">ー</text><text class="cls-3" transform="translate(104.62 8.09)">ト</text><text class="cls-3" transform="translate(115.1 8.09)">の</text><text class="cls-4" transform="translate(126.14 8.09)">経営支援サービ<tspan class="cls-5" x="74.67" y="0">ス</tspan></text></g></g></svg>